<svg width="193" height="220" viewBox="0 0 193 220" fill="none" xmlns="http://www.w3.org/2000/svg">
<g filter="url(#filter0_d_1_2040)">
<rect x="70" y="45" width="80" height="80" rx="10" fill="white"/>
</g>
<g clip-path="url(#clip0_1_2040)">
<path d="M130.463 110H115.647C113.418 110 111.611 108.192 111.611 105.963V91.147C111.611 88.9175 113.418 87.1101 115.647 87.1101H130.463C132.693 87.1101 134.5 88.9175 134.5 91.147V105.963C134.5 108.192 132.693 110 130.463 110Z" fill="#BDF4E3"/>
<path d="M129.15 106.433H116.961C115.976 106.433 115.177 105.635 115.177 104.65V92.4611C115.177 91.4763 115.976 90.678 116.961 90.678H129.15C130.134 90.678 130.933 91.4763 130.933 92.4611V104.65C130.933 105.635 130.134 106.433 129.15 106.433Z" fill="#FFDCB6"/>
<path d="M130.463 87.1101H126.095C127.808 87.1101 129.197 88.4988 129.197 90.2117V101.595C129.197 103.308 127.808 104.696 126.095 104.696H114.712C112.999 104.696 111.611 103.308 111.611 101.595V105.963C111.611 108.192 113.418 110 115.648 110H130.463C132.693 110 134.5 108.192 134.5 105.963V91.147C134.5 88.9174 132.693 87.1101 130.463 87.1101Z" fill="#B1B7E3"/>
<path d="M129.197 90.6797V101.595C129.197 103.308 127.808 104.696 126.095 104.696H115.18C115.205 105.659 115.992 106.433 116.961 106.433H129.15C130.135 106.433 130.933 105.634 130.933 104.65V92.4605C130.933 91.4914 130.16 90.7048 129.197 90.6797Z" fill="#EFA5B6"/>
<path d="M127.527 87.0882H112.711C110.481 87.0882 108.674 85.2808 108.674 83.0513V68.2356C108.674 66.0062 110.481 64.1987 112.711 64.1987H127.527C129.756 64.1987 131.564 66.0062 131.564 68.2356V83.0514C131.563 85.2809 129.756 87.0882 127.527 87.0882Z" fill="#EF8BBD"/>
<path d="M126.213 83.5208H114.024C113.04 83.5208 112.241 82.7224 112.241 81.7376V69.5485C112.241 68.5637 113.04 67.7654 114.024 67.7654H126.213C127.198 67.7654 127.996 68.5637 127.996 69.5485V81.7376C127.996 82.7224 127.198 83.5208 126.213 83.5208Z" fill="#FFDCB6"/>
<path d="M127.527 64.1987H123.159C124.872 64.1987 126.26 65.5874 126.26 67.3003V78.6833C126.26 80.3962 124.871 81.7849 123.159 81.7849H111.776C110.063 81.7849 108.674 80.3962 108.674 78.6833V83.0513C108.674 85.2808 110.481 87.0882 112.711 87.0882H127.527C129.756 87.0882 131.564 85.2808 131.564 83.0513V68.2356C131.563 66.0062 129.756 64.1987 127.527 64.1987Z" fill="#E068BD"/>
<path d="M126.26 67.7683V78.6834C126.26 80.3963 124.872 81.785 123.159 81.785H112.242C112.267 82.7479 113.055 83.5212 114.024 83.5212H126.213C127.198 83.5212 127.996 82.7229 127.996 81.7381V69.5491C127.996 68.5801 127.223 67.7934 126.26 67.7683Z" fill="#EFA5B6"/>
<path d="M104.353 110H89.5369C87.3074 110 85.5 108.192 85.5 105.963V91.147C85.5 88.9175 87.3074 87.1101 89.5369 87.1101H104.353C106.582 87.1101 108.39 88.9175 108.39 91.147V105.963C108.389 108.192 106.582 110 104.353 110Z" fill="#CAB4EF"/>
<path d="M103.039 106.432H90.8502C89.8654 106.432 89.0671 105.634 89.0671 104.649V92.4599C89.0671 91.4751 89.8654 90.6768 90.8502 90.6768H103.039C104.024 90.6768 104.822 91.4751 104.822 92.4599V104.649C104.822 105.634 104.024 106.432 103.039 106.432Z" fill="#FFDCB6"/>
<path d="M104.354 87.1101H99.9855C101.698 87.1101 103.087 88.4988 103.087 90.2117V101.595C103.087 103.308 101.698 104.696 99.9855 104.696H88.6026C86.8896 104.696 85.501 103.308 85.501 101.595V105.963C85.5009 108.192 87.3083 110 89.5378 110H104.354C106.583 110 108.39 108.192 108.39 105.963V91.147C108.39 88.9175 106.583 87.1101 104.354 87.1101Z" fill="#BE87EF"/>
<path d="M103.086 90.6797V101.595C103.086 103.308 101.698 104.696 99.9846 104.696H89.0695C89.0946 105.659 89.8813 106.433 90.8503 106.433H103.039C104.024 106.433 104.823 105.634 104.823 104.649V92.4605C104.822 91.4914 104.049 90.7047 103.086 90.6797Z" fill="#EFA5B6"/>
<path d="M91.7426 98.8789C91.2033 98.8789 90.7661 98.4416 90.7661 97.9023V96.6953C90.7661 96.1561 91.2033 95.7188 91.7426 95.7188C92.282 95.7188 92.7192 96.1561 92.7192 96.6953V97.9023C92.7192 98.4417 92.282 98.8789 91.7426 98.8789Z" fill="white"/>
<path d="M91.7426 94.8157C91.2033 94.8157 90.7661 94.3784 90.7661 93.8391V93.3962C90.7661 92.857 91.2033 92.4197 91.7426 92.4197C92.282 92.4197 92.7192 92.857 92.7192 93.3962V93.8391C92.7192 94.3785 92.282 94.8157 91.7426 94.8157Z" fill="white"/>
<path d="M124.083 104.64C123.564 104.607 123.171 104.153 123.171 103.633V94.4214H121.996C121.476 94.4214 121.022 94.0289 120.989 93.51C120.952 92.9412 121.402 92.4683 121.963 92.4683H124.238C124.728 92.4683 125.124 92.8649 125.124 93.3543V103.666C125.124 104.227 124.651 104.677 124.083 104.64Z" fill="#D58A9C"/>
<path d="M119.644 81.833C117.684 81.833 117.54 81.7849 117.409 81.741C117.083 81.6326 116.84 81.3866 116.741 81.0662C116.571 80.5135 116.81 80.2014 117.447 79.3672C117.967 78.6865 118.934 77.4196 120.556 75.1028C121.038 74.4139 121.349 73.7969 121.481 73.2678L121.515 72.9936C121.486 72.1152 120.763 71.4096 119.878 71.4096C119.096 71.4096 118.42 71.9648 118.27 72.7297C118.166 73.259 117.652 73.6037 117.123 73.4998C116.594 73.3959 116.249 72.8826 116.353 72.3534C116.683 70.6749 118.165 69.4565 119.878 69.4565C121.858 69.4565 123.47 71.0679 123.47 73.0485V73.1106L123.405 73.6165L123.394 73.6646C123.212 74.448 122.796 75.3088 122.156 76.2229C120.942 77.9571 120.088 79.113 119.512 79.8777C120.477 79.8742 121.736 79.869 122.914 79.8543C122.918 79.8542 122.922 79.8542 122.927 79.8542C123.46 79.8542 123.896 80.2834 123.903 80.8185C123.909 81.3577 123.478 81.8005 122.939 81.8072C121.481 81.8254 120.42 81.833 119.644 81.833Z" fill="#D58A9C"/>
<path d="M96.9448 99.5317C96.4054 99.5317 95.9682 99.0944 95.9682 98.5551C95.9682 98.0159 96.4054 97.5786 96.9448 97.5786C97.8485 97.5786 98.5836 96.8434 98.5836 95.9397C98.5836 95.0361 97.8485 94.3009 96.9448 94.3009C96.1632 94.3009 95.4869 94.8562 95.3368 95.621C95.2328 96.1502 94.72 96.4956 94.1903 96.3912C93.6611 96.2873 93.3162 95.774 93.4203 95.2448C93.7498 93.5663 95.2322 92.3479 96.9448 92.3479C98.9254 92.3479 100.537 93.9592 100.537 95.9398C100.537 97.9204 98.9254 99.5317 96.9448 99.5317Z" fill="#D58A9C"/>
<path d="M96.9448 104.762C95.1628 104.762 93.6334 103.433 93.3875 101.67C93.3645 101.506 93.3529 101.338 93.3529 101.17C93.3529 100.631 93.7901 100.194 94.3295 100.194C94.8688 100.194 95.306 100.631 95.306 101.17C95.306 101.247 95.3114 101.325 95.3218 101.4C95.4339 102.203 96.1317 102.809 96.9449 102.809C97.8486 102.809 98.5838 102.074 98.5838 101.17C98.5838 100.267 97.8486 99.5315 96.9449 99.5315C96.4055 99.5315 95.9683 99.0942 95.9683 98.5549C95.9683 98.0157 96.4055 97.5784 96.9449 97.5784C98.9256 97.5784 100.537 99.1897 100.537 101.17C100.537 103.151 98.9255 104.762 96.9448 104.762Z" fill="#D58A9C"/>
<path d="M102.237 60.2534L103.087 62.6437C103.124 62.746 103.196 62.8271 103.287 62.8681L105.41 63.8249C105.71 63.9601 105.71 64.4381 105.41 64.5733L103.287 65.5301C103.196 65.571 103.124 65.6522 103.087 65.7545L102.237 68.1448C102.117 68.4825 101.692 68.4825 101.572 68.1448L100.722 65.7545C100.686 65.6522 100.614 65.5711 100.523 65.5301L98.3991 64.5733C98.0991 64.4381 98.0991 63.9601 98.3991 63.8249L100.523 62.8681C100.614 62.8271 100.686 62.746 100.722 62.6437L101.572 60.2534C101.692 59.9158 102.117 59.9158 102.237 60.2534Z" fill="#F7C4DB"/>
<path d="M91.5764 81.0205C91.969 80.0733 91.5194 78.9871 90.5721 78.5945C89.6249 78.2019 88.5387 78.6514 88.146 79.5986C87.7534 80.5459 88.203 81.632 89.1503 82.0247C90.0976 82.4173 91.1838 81.9677 91.5764 81.0205Z" fill="#EF8BBD"/>
<path d="M93.8123 67.8917C93.8817 67.4633 93.5907 67.0596 93.1622 66.9902C92.7338 66.9207 92.3301 67.2117 92.2606 67.6402C92.1912 68.0687 92.4822 68.4723 92.9107 68.5418C93.3392 68.6112 93.7428 68.3202 93.8123 67.8917Z" fill="#EF8BBD"/>
<path d="M97.1915 74.8131L97.8221 76.5862C97.849 76.662 97.9025 76.7222 97.9699 76.7526L99.5452 77.4623C99.7678 77.5626 99.7678 77.9172 99.5452 78.0175L97.9699 78.7273C97.9024 78.7576 97.849 78.8178 97.8221 78.8937L97.1915 80.6667C97.1024 80.9172 96.7874 80.9172 96.6982 80.6667L96.0677 78.8937C96.0407 78.8178 95.9872 78.7576 95.9198 78.7273L94.3445 78.0175C94.122 77.9172 94.122 77.5626 94.3445 77.4623L95.9198 76.7526C95.9873 76.7222 96.0407 76.662 96.0677 76.5862L96.6982 74.8131C96.7873 74.5626 97.1023 74.5626 97.1915 74.8131Z" fill="#F7C4DB"/>
</g>
<defs>
<filter id="filter0_d_1_2040" x="0" y="0" width="220" height="220" filterUnits="userSpaceOnUse" color-interpolation-filters="sRGB">
<feFlood flood-opacity="0" result="BackgroundImageFix"/>
<feColorMatrix in="SourceAlpha" type="matrix" values="0 0 0 0 0 0 0 0 0 0 0 0 0 0 0 0 0 0 127 0" result="hardAlpha"/>
<feOffset dy="25"/>
<feGaussianBlur stdDeviation="35"/>
<feColorMatrix type="matrix" values="0 0 0 0 0.0392157 0 0 0 0 0.0117647 0 0 0 0 0.235294 0 0 0 0.15 0"/>
<feBlend mode="normal" in2="BackgroundImageFix" result="effect1_dropShadow_1_2040"/>
<feBlend mode="normal" in="SourceGraphic" in2="effect1_dropShadow_1_2040" result="shape"/>
</filter>
<clipPath id="clip0_1_2040">
<rect width="50" height="50" fill="white" transform="translate(85 60)"/>
</clipPath>
</defs>
</svg>
