<svg width="220" height="220" viewBox="0 0 220 220" fill="none" xmlns="http://www.w3.org/2000/svg">
<g filter="url(#filter0_d_1_1990)">
<rect x="70" y="45" width="80" height="80" rx="10" fill="white"/>
</g>
<g clip-path="url(#clip0_1_1990)">
<path d="M111.897 68.7463C111.503 68.7471 111.159 68.4814 111.06 68.1006C110.962 67.7197 111.133 67.3204 111.478 67.1299C118.067 63.4748 126.117 60.7506 128.944 64.0782C129.253 64.441 129.21 64.986 128.847 65.2955C128.485 65.6049 127.94 65.5617 127.63 65.1989C126.178 63.4929 120.452 64.1265 112.314 68.642C112.186 68.7112 112.042 68.747 111.897 68.7463Z" fill="#E57E25"/>
<path d="M91.25 91.6976C90.8965 91.6978 90.5787 91.4822 90.4483 91.1536C89.2681 88.1838 91.9414 83.0752 97.6034 77.4855C97.9472 77.1866 98.4642 77.2067 98.7837 77.5314C99.1032 77.8562 99.1149 78.3734 98.8103 78.7122C93.1302 84.3243 91.3224 88.6847 92.05 90.5166C92.1557 90.782 92.123 91.0825 91.9628 91.319C91.8026 91.5555 91.5357 91.6973 91.25 91.6976Z" fill="#E57E25"/>
<path d="M108.327 68.8718C108.179 68.8718 108.035 68.8341 107.906 68.7623C99.5284 64.0657 94.0362 63.5614 92.475 65.0761C92.1341 65.4094 91.5876 65.4032 91.2543 65.0623C90.921 64.7214 90.9272 64.1749 91.2681 63.8416C94.3328 60.8588 102.303 63.6502 108.741 67.2571C109.084 67.4487 109.254 67.8479 109.155 68.2279C109.056 68.6079 108.712 68.8727 108.319 68.8718H108.327Z" fill="#E57E25"/>
<path d="M128.784 91.6121C128.503 91.612 128.24 91.4755 128.079 91.2459C127.917 91.0164 127.878 90.7227 127.972 90.4586C128.785 88.1974 126.123 83.5871 121.19 78.713C120.86 78.3769 120.861 77.8386 121.192 77.5037C121.522 77.1688 122.061 77.161 122.401 77.4862C127.978 82.9957 130.666 88.063 129.594 91.0414C129.471 91.3834 129.147 91.6117 128.784 91.6121Z" fill="#E57E25"/>
<path d="M103.103 103.103H100.517C100.041 103.103 99.6552 102.717 99.6552 102.241C99.6552 101.765 100.041 101.379 100.517 101.379H103.103C103.58 101.379 103.966 101.765 103.966 102.241C103.966 102.717 103.58 103.103 103.103 103.103Z" fill="#7F8284"/>
<path d="M119.483 103.103H116.897C116.42 103.103 116.034 102.717 116.034 102.241C116.034 101.765 116.42 101.379 116.897 101.379H119.483C119.959 101.379 120.345 101.765 120.345 102.241C120.345 102.717 119.959 103.103 119.483 103.103Z" fill="#7F8284"/>
<path d="M125.448 80.4655C125.107 84.0008 123.557 87.3102 121.06 89.8362C118.436 92.4348 116.94 95.9622 116.897 99.6552H103.103C103.097 97.8279 102.719 96.021 101.991 94.3448C101.262 92.666 100.227 91.1373 98.9396 89.8362C94.9684 85.8076 93.5074 79.9353 95.128 74.5155C96.7485 69.0956 101.193 64.9892 106.724 63.8017C107.122 63.7204 107.41 63.372 107.414 62.9655V62.5862C107.414 61.1579 108.572 60 110 60C111.428 60 112.586 61.1579 112.586 62.5862V62.9655C112.59 63.372 112.878 63.7204 113.276 63.8017C120.974 65.4626 126.207 72.6268 125.448 80.4655Z" fill="#F0C419"/>
<path d="M122.691 80.4655C122.458 83.8803 121.202 87.1456 119.086 89.8362C116.863 92.6253 115.657 96.0885 115.666 99.6552H104.334C104.333 97.8461 104.024 96.0504 103.421 94.3448C102.846 92.7109 101.999 91.1864 100.914 89.8362C98.7983 87.1456 97.542 83.8803 97.3086 80.4655C96.6853 72.3707 101.176 65.3966 107.309 63.8017C107.663 63.6804 107.894 63.3393 107.875 62.9655V62.5862C107.759 61.2886 108.704 60.1374 110 60C110.589 60.0132 111.141 60.292 111.502 60.7586C111.913 61.2783 112.133 61.9236 112.125 62.5862V62.9655C112.106 63.3393 112.337 63.6804 112.691 63.8017C118.824 65.3966 123.315 72.3707 122.691 80.4655Z" fill="#F3D55B"/>
<path d="M116.897 99.6548V104.827C116.894 105.778 116.123 106.548 115.172 106.551H104.828C103.877 106.548 103.106 105.778 103.103 104.827V99.6548H116.897Z" fill="#95A5A5"/>
<path d="M114.31 106.983C114.31 108.647 112.379 110 110 110C107.621 110 105.69 108.647 105.69 106.983C105.689 106.838 105.707 106.693 105.741 106.552H114.259C114.293 106.693 114.311 106.838 114.31 106.983Z" fill="#393F4A"/>
<path d="M95.1267 93.6209C93.863 93.6907 92.612 93.3389 91.5698 92.6209C91.3104 92.4375 91.1728 92.1263 91.2119 91.811C91.251 91.4957 91.4603 91.2274 91.7566 91.1129C92.053 90.9984 92.3883 91.0561 92.6293 91.2632C93.8655 92.2261 96.6422 92.0951 100.247 90.9054C103.506 89.786 106.628 88.3009 109.553 86.4787C110.687 85.789 111.794 85.0658 112.854 84.3347C117.096 81.4658 120.93 78.0377 124.255 74.1433C127.067 70.7166 128.468 67.658 128.003 65.9606C127.881 65.5027 128.152 65.0321 128.609 64.907C129.066 64.7819 129.538 65.0492 129.666 65.5054C130.474 68.4563 127.895 72.4261 125.589 75.2365C122.162 79.255 118.208 82.7927 113.835 85.7537C112.752 86.5037 111.613 87.2433 110.449 87.9528C107.411 89.8438 104.168 91.3844 100.783 92.5451C98.963 93.1889 97.0557 93.5517 95.1267 93.6209Z" fill="#F29C1F"/>
<path d="M124.871 93.6274C122.94 93.5617 121.031 93.1958 119.213 92.5429C115.83 91.3822 112.589 89.8423 109.553 87.9524C108.387 87.242 107.248 86.5024 106.165 85.7515C101.791 82.7906 97.8374 79.2529 94.4103 75.2343C92.0767 72.3895 89.4793 68.38 90.3586 65.4248C90.4969 64.9718 90.9748 64.7152 91.4288 64.8502C91.8828 64.9852 92.1429 65.4612 92.0112 65.9162C91.5103 67.605 92.906 70.68 95.7465 74.1412C99.0706 78.0357 102.905 81.4641 107.146 84.3334C108.203 85.0653 109.313 85.7877 110.449 86.4791C113.372 88.3003 116.491 89.7845 119.748 90.9033C123.523 92.1489 126.437 92.2248 127.547 91.1067C127.882 90.7689 128.428 90.7672 128.766 91.1028C129.104 91.4385 129.105 91.9844 128.77 92.3222C127.699 93.2642 126.293 93.7347 124.871 93.6274Z" fill="#F29C1F"/>
<path d="M91.4655 94.4825C93.1319 94.4825 94.4827 93.1316 94.4827 91.4652C94.4827 89.7989 93.1319 88.448 91.4655 88.448C89.7991 88.448 88.4483 89.7989 88.4483 91.4652C88.4483 93.1316 89.7991 94.4825 91.4655 94.4825Z" fill="#3B97D3"/>
<path d="M91.4655 67.7586C93.1319 67.7586 94.4827 66.4077 94.4827 64.7414C94.4827 63.075 93.1319 61.7241 91.4655 61.7241C89.7991 61.7241 88.4483 63.075 88.4483 64.7414C88.4483 66.4077 89.7991 67.7586 91.4655 67.7586Z" fill="#3B97D3"/>
<path d="M128.534 94.4825C130.201 94.4825 131.552 93.1316 131.552 91.4652C131.552 89.7989 130.201 88.448 128.534 88.448C126.868 88.448 125.517 89.7989 125.517 91.4652C125.517 93.1316 126.868 94.4825 128.534 94.4825Z" fill="#3B97D3"/>
<path d="M128.534 67.7586C130.201 67.7586 131.552 66.4077 131.552 64.7414C131.552 63.075 130.201 61.7241 128.534 61.7241C126.868 61.7241 125.517 63.075 125.517 64.7414C125.517 66.4077 126.868 67.7586 128.534 67.7586Z" fill="#3B97D3"/>
<path d="M99.2112 74.4337C98.9123 74.4336 98.6347 74.2788 98.4777 74.0245C98.3206 73.7701 98.3066 73.4526 98.4405 73.1854C100.059 69.9434 102.964 67.5299 106.448 66.5328C106.748 66.4374 107.076 66.5128 107.304 66.7295C107.532 66.9461 107.623 67.2697 107.543 67.5738C107.463 67.8778 107.224 68.1142 106.919 68.1906C103.901 69.0556 101.384 71.1477 99.9827 73.9569C99.8367 74.2492 99.5379 74.4338 99.2112 74.4337Z" fill="white"/>
</g>
<defs>
<filter id="filter0_d_1_1990" x="0" y="0" width="220" height="220" filterUnits="userSpaceOnUse" color-interpolation-filters="sRGB">
<feFlood flood-opacity="0" result="BackgroundImageFix"/>
<feColorMatrix in="SourceAlpha" type="matrix" values="0 0 0 0 0 0 0 0 0 0 0 0 0 0 0 0 0 0 127 0" result="hardAlpha"/>
<feOffset dy="25"/>
<feGaussianBlur stdDeviation="35"/>
<feColorMatrix type="matrix" values="0 0 0 0 0.0392157 0 0 0 0 0.0117647 0 0 0 0 0.235294 0 0 0 0.15 0"/>
<feBlend mode="normal" in2="BackgroundImageFix" result="effect1_dropShadow_1_1990"/>
<feBlend mode="normal" in="SourceGraphic" in2="effect1_dropShadow_1_1990" result="shape"/>
</filter>
<clipPath id="clip0_1_1990">
<rect width="50" height="50" fill="white" transform="translate(85 60)"/>
</clipPath>
</defs>
</svg>
