<svg width="220" height="220" viewBox="0 0 220 220" fill="none" xmlns="http://www.w3.org/2000/svg">
<g filter="url(#filter0_d_1_2013)">
<rect x="70" y="45" width="80" height="80" rx="10" fill="white"/>
</g>
<g clip-path="url(#clip0_1_2013)">
<path d="M92.4138 86.147H90.0173C89.6049 86.1477 89.2508 86.4404 89.1725 86.8452L85.3966 106.225C85.2986 106.731 85.4324 107.254 85.7612 107.652C86.0899 108.049 86.5792 108.278 87.0949 108.276H105.69C105.69 109.225 107.621 110 110 110C112.379 110 114.31 109.225 114.31 108.276H132.905C133.421 108.278 133.91 108.049 134.239 107.652C134.568 107.254 134.701 106.731 134.603 106.225L130.828 86.8452C130.749 86.4404 130.395 86.1477 129.983 86.147H92.4138Z" fill="#E64C3C"/>
<path d="M110 88.6551V104.827C108.739 104.28 107.424 103.864 106.078 103.586C100.958 102.473 95.6351 102.744 90.6552 104.371C90.3689 104.458 90.0579 104.392 89.8319 104.196C89.606 103.999 89.4968 103.701 89.5431 103.405L92.4138 86.1465L92.6552 84.6896C92.717 84.3198 93.0089 84.0314 93.3793 83.974C93.9655 83.8878 94.569 83.8016 95.1724 83.7327C96.2259 85.7804 98.3351 87.0679 100.638 87.0689C100.793 87.0689 100.94 87.0602 101.086 87.0516C101.66 87.0068 102.226 86.8851 102.767 86.6896C102.769 86.7079 102.775 86.7256 102.784 86.7413C103.43 88.5479 105.142 89.7529 107.06 89.7499C108.141 89.7535 109.185 89.3644 110 88.6551Z" fill="#F5EFCA"/>
<path d="M129.345 104.371C124.365 102.744 119.042 102.473 113.922 103.586C112.576 103.864 111.261 104.28 110 104.828V88.6552C110.181 88.507 110.349 88.3425 110.5 88.1638C111.361 88.5064 112.28 88.6819 113.207 88.6811H113.259C113.303 89.2975 113.538 89.8848 113.931 90.3621C114.768 91.1893 115.814 91.7733 116.957 92.0517C117.786 92.3166 118.526 92.8059 119.095 93.4655C119.602 94.0933 120.46 94.3141 121.207 94.0086C121.864 93.7247 122.291 93.0781 122.293 92.3621C122.294 92.1748 122.265 91.9885 122.207 91.8104C122.121 91.5431 122.026 91.2759 121.914 91.0173C121.698 90.4831 121.414 89.979 121.069 89.5173C122.779 88.5926 123.979 86.9452 124.336 85.0345C124.362 85 124.397 84.9655 124.422 84.9311C124.717 84.584 124.959 84.1946 125.138 83.7759C125.638 83.8362 126.129 83.8966 126.621 83.9742C126.991 84.0315 127.283 84.3199 127.345 84.6897L127.586 86.1466L130.457 103.405C130.503 103.701 130.394 104 130.168 104.196C129.942 104.392 129.631 104.458 129.345 104.371Z" fill="#F9EAB0"/>
<path d="M114.31 108.275C114.31 109.224 112.379 109.999 110 109.999C107.621 109.999 105.69 109.224 105.69 108.275L106.078 103.586C107.424 103.863 108.739 104.279 110 104.827C111.261 104.279 112.576 103.863 113.922 103.586L114.31 108.275Z" fill="#C03A2B"/>
<path d="M125.517 81.9739C125.516 82.5942 125.387 83.2076 125.138 83.7756C124.959 84.1943 124.717 84.5837 124.422 84.9307C124.397 84.9652 124.362 84.9997 124.336 85.0342C123.979 86.9449 122.779 88.5923 121.069 89.517C121.414 89.9787 121.698 90.4828 121.914 91.017C122.026 91.2756 122.121 91.5428 122.207 91.8101C122.265 91.9882 122.294 92.1745 122.293 92.3618C122.291 93.0778 121.864 93.7244 121.207 94.0083C120.46 94.3138 119.602 94.093 119.095 93.4652C118.526 92.8056 117.786 92.3163 116.957 92.0514C115.814 91.773 114.768 91.189 113.931 90.3618C113.538 89.8845 113.303 89.2972 113.259 88.6807H113.207C112.28 88.6816 111.361 88.5061 110.5 88.1635C110.349 88.3422 110.181 88.5067 110 88.6549C109.185 89.3642 108.141 89.7533 107.06 89.7497C105.142 89.7527 103.43 88.5477 102.785 86.7411C102.775 86.7254 102.769 86.7077 102.767 86.6894C102.226 86.8849 101.66 87.0066 101.086 87.0514C100.94 87.0601 100.793 87.0687 100.638 87.0687C98.308 87.0671 96.1784 85.7509 95.135 83.6677C94.0915 81.5844 94.3129 79.0907 95.7069 77.2239C95.6032 76.9423 95.5507 76.6445 95.5517 76.3445C95.5466 75.0705 96.4414 73.97 97.6897 73.7152C97.6943 73.7105 97.7004 73.7075 97.7069 73.7066C97.6983 73.6032 97.6897 73.4997 97.6897 73.3876C97.6885 72.9095 97.7884 72.4365 97.9828 71.9997C98.5328 70.7276 99.7865 69.9042 101.172 69.9049C101.695 69.9024 102.211 70.0204 102.681 70.2497C103.599 68.7045 105.263 67.7577 107.06 67.7583C108.293 67.7539 109.485 68.2052 110.405 69.0256C110.934 68.1732 111.895 67.6884 112.894 67.7702C113.894 67.852 114.764 68.4865 115.147 69.4135C115.393 69.386 115.64 69.3716 115.888 69.3704C119.228 69.3759 122.008 71.9383 122.285 75.267H122.31C123.021 75.267 123.702 75.5497 124.203 76.0527C124.705 76.5558 124.985 77.2377 124.983 77.948C124.981 78.4124 124.863 78.869 124.638 79.2756C125.21 80.0589 125.518 81.0039 125.517 81.9739Z" fill="#FB7B76"/>
<path d="M110 62.5862C109.524 62.5862 109.138 62.2002 109.138 61.7241V60.8621C109.138 60.386 109.524 60 110 60C110.476 60 110.862 60.386 110.862 60.8621V61.7241C110.862 62.2002 110.476 62.5862 110 62.5862Z" fill="#F0C419"/>
<path d="M123.894 68.5199C123.545 68.5198 123.231 68.3098 123.098 67.9877C122.964 67.6656 123.038 67.2949 123.285 67.0484L124.147 66.1863C124.363 65.9622 124.684 65.8723 124.985 65.9512C125.286 66.0301 125.522 66.2655 125.601 66.5669C125.68 66.8683 125.59 67.1888 125.366 67.4053L124.503 68.2673C124.342 68.429 124.123 68.5199 123.894 68.5199Z" fill="#F0C419"/>
<path d="M96.1061 68.5199C95.8775 68.5199 95.6582 68.429 95.4966 68.2673L94.6345 67.4053C94.4104 67.1888 94.3206 66.8683 94.3995 66.5669C94.4783 66.2655 94.7137 66.0301 95.0151 65.9512C95.3165 65.8723 95.6371 65.9622 95.8535 66.1863L96.7156 67.0484C96.962 67.2949 97.0358 67.6656 96.9024 67.9877C96.769 68.3098 96.4547 68.5198 96.1061 68.5199Z" fill="#F0C419"/>
<path d="M102.742 64.8919C102.394 64.8919 102.079 64.682 101.946 64.36L100.956 61.9703C100.83 61.6844 100.869 61.3527 101.057 61.1035C101.246 60.8542 101.554 60.7263 101.863 60.7692C102.173 60.812 102.435 61.0189 102.548 61.31L103.539 63.6996C103.627 63.911 103.627 64.1486 103.539 64.3601C103.452 64.5716 103.284 64.7397 103.072 64.8272C102.968 64.8699 102.855 64.8919 102.742 64.8919Z" fill="#F0C419"/>
<path d="M117.258 64.8919C117.145 64.8916 117.032 64.8694 116.928 64.8263C116.716 64.7388 116.548 64.5709 116.461 64.3596C116.374 64.1483 116.374 63.9109 116.461 63.6996L117.452 61.31C117.565 61.0189 117.827 60.812 118.137 60.7692C118.446 60.7263 118.755 60.8542 118.943 61.1035C119.131 61.3527 119.17 61.6844 119.044 61.9703L118.054 64.36C117.921 64.682 117.606 64.8919 117.258 64.8919Z" fill="#F0C419"/>
<path d="M127.522 75.1568C127.109 75.1581 126.754 74.8673 126.673 74.463C126.593 74.0587 126.81 73.654 127.191 73.4974L129.581 72.5077C129.866 72.3899 130.191 72.4329 130.436 72.6204C130.68 72.808 130.806 73.1116 130.766 73.417C130.725 73.7223 130.525 73.983 130.241 74.1008L127.852 75.0905C127.747 75.1341 127.635 75.1566 127.522 75.1568Z" fill="#F0C419"/>
<path d="M92.4785 75.1568C92.3652 75.1566 92.253 75.1341 92.1483 75.0905L89.7596 74.1008C89.475 73.983 89.2749 73.7223 89.2346 73.417C89.1943 73.1116 89.32 72.808 89.5643 72.6204C89.8086 72.4329 90.1345 72.3899 90.419 72.5077L92.8087 73.4974C93.19 73.654 93.4071 74.0587 93.3266 74.463C93.2462 74.8673 92.8908 75.1581 92.4785 75.1568Z" fill="#F0C419"/>
<path d="M124.422 84.931C124.397 84.9654 124.362 84.9999 124.336 85.0344C124.184 85.8646 123.868 86.6561 123.405 87.362C122.954 87.4901 122.487 87.554 122.017 87.5517C121.163 87.5492 120.321 87.3454 119.56 86.9568C119.2 86.7641 118.862 86.5329 118.552 86.2672C118.208 86.4003 117.843 86.4704 117.474 86.4741C116.335 86.4799 115.292 85.8381 114.785 84.8189C114.646 84.5432 114.665 84.2146 114.834 83.9567C115.004 83.6989 115.298 83.551 115.606 83.5688C115.914 83.5866 116.189 83.7674 116.328 84.043C116.498 84.3699 116.8 84.6086 117.157 84.6991C117.514 84.7897 117.893 84.7235 118.198 84.5172C118.543 84.2818 118.75 83.8915 118.75 83.4741C118.751 83.2742 118.707 83.0767 118.621 82.8965C118.447 82.4796 118.625 81.9995 119.028 81.7958C119.431 81.592 119.922 81.7337 120.155 82.1206C120.365 82.541 120.474 83.0043 120.474 83.4741C120.467 84.0764 120.278 84.6625 119.931 85.1551C120.069 85.2499 120.207 85.3448 120.345 85.4223C120.862 85.6886 121.436 85.8275 122.017 85.8275C122.902 85.8324 123.757 85.5135 124.422 84.931Z" fill="#FF5364"/>
<path d="M113.879 81.5465C114.996 80.777 115.764 79.5979 116.016 78.2654C116.081 77.9604 115.975 77.6444 115.74 77.4391C115.506 77.2339 115.179 77.1712 114.885 77.2753C114.591 77.3795 114.376 77.6341 114.323 77.9413C114.154 78.8304 113.641 79.6169 112.896 80.1301C111.461 81.0961 109.538 80.8768 108.358 79.6128C108.037 79.2605 107.491 79.2352 107.138 79.5564C106.786 79.8775 106.761 80.4234 107.082 80.7758C107.813 81.5832 108.78 82.1405 109.845 82.3689C109.362 83.0477 108.58 83.45 107.747 83.4482C107.27 83.4482 106.885 83.8341 106.885 84.3103C106.885 84.7864 107.27 85.1723 107.747 85.1723C109.531 85.1794 111.132 84.0772 111.763 82.4077C112.524 82.2812 113.247 81.9871 113.879 81.5465Z" fill="#FF5364"/>
<path d="M121.914 91.0178C121.28 91.3412 120.599 91.5623 119.897 91.673C119.851 91.6802 119.805 91.683 119.759 91.6816C119.305 91.6858 118.925 91.3371 118.891 90.8844C118.857 90.4316 119.18 90.03 119.629 89.9661C120.129 89.8904 120.615 89.7393 121.069 89.5178C121.414 89.9796 121.698 90.4837 121.914 91.0178Z" fill="#FF5364"/>
<path d="M102.707 85.0001C102.663 85.242 102.64 85.4871 102.638 85.7329C102.636 86.0563 102.68 86.3784 102.767 86.6898C102.226 86.8853 101.66 87.007 101.086 87.0518C100.976 86.6295 100.918 86.1952 100.914 85.7587C99.3953 85.5931 98.2443 84.3121 98.2414 82.7846C98.2385 82.3045 98.6234 81.9119 99.1035 81.9053C99.331 81.9039 99.5498 81.9931 99.7115 82.1532C99.8732 82.3133 99.9646 82.5312 99.9655 82.7587V82.7846C99.9784 83.4658 100.518 84.0202 101.198 84.0518C101.317 83.663 101.482 83.2897 101.69 82.9398C101.805 82.7421 101.996 82.5995 102.218 82.5443C102.441 82.4891 102.676 82.5261 102.871 82.6467C103.276 82.8972 103.406 83.4261 103.164 83.8363C102.945 84.1947 102.79 84.5885 102.707 85.0001Z" fill="#FF5364"/>
<path d="M115.526 90.0433C115.008 90.209 114.473 90.316 113.931 90.3623C113.538 89.885 113.303 89.2977 113.259 88.6812C113.342 88.6828 113.426 88.6799 113.509 88.6726C114.021 88.6401 114.527 88.5475 115.017 88.3967C115.315 88.2948 115.644 88.3627 115.877 88.574C116.109 88.7853 116.208 89.1066 116.136 89.4123C116.063 89.718 115.829 89.9598 115.526 90.0433Z" fill="#FF5364"/>
<path d="M108.104 74.6553C108.104 74.1792 107.718 73.7932 107.241 73.7932C105.052 73.7956 103.278 75.5696 103.276 77.7587C103.276 78.2348 103.662 78.6208 104.138 78.6208C104.614 78.6208 105 78.2348 105 77.7587C105 77.1643 105.236 76.5942 105.657 76.1738C106.077 75.7535 106.647 75.5174 107.241 75.5174C107.718 75.5174 108.104 75.1314 108.104 74.6553Z" fill="#FF5364"/>
<path d="M96.8518 79.5028C96.6952 79.503 96.5416 79.4601 96.4078 79.3787C95.6969 78.9497 95.1591 78.285 94.888 77.5002C94.7568 77.1272 94.6901 76.7345 94.6906 76.339C94.6905 74.3853 96.2713 72.7999 98.225 72.7942C99.3445 72.7899 100.398 73.3216 101.06 74.2244C101.244 74.4717 101.282 74.7982 101.16 75.081C101.037 75.3638 100.773 75.5598 100.467 75.5952C100.161 75.6307 99.8596 75.5002 99.6759 75.2528C99.338 74.7918 98.8001 74.5201 98.2285 74.5218C97.4125 74.5264 96.6992 75.073 96.4825 75.8597C96.2659 76.6464 96.5989 77.4812 97.2975 77.9028C97.6296 78.1026 97.7877 78.4994 97.6837 78.8728C97.5797 79.2462 97.2394 79.5044 96.8518 79.5037V79.5028Z" fill="#FF5364"/>
<path d="M115.351 71.3029C114.875 71.3029 114.489 70.9169 114.489 70.4408C114.489 69.4393 113.677 68.6275 112.675 68.6275C111.674 68.6275 110.862 69.4393 110.862 70.4408C110.862 70.9169 110.476 71.3029 110 71.3029C109.524 71.3029 109.138 70.9169 109.138 70.4408C109.138 68.4871 110.722 66.9033 112.675 66.9033C114.629 66.9033 116.213 68.4871 116.213 70.4408C116.213 70.6695 116.122 70.8887 115.96 71.0504C115.799 71.2121 115.58 71.3029 115.351 71.3029Z" fill="#FF5364"/>
<path d="M123.437 81.2426C123.037 81.2387 122.692 80.9598 122.604 80.5692C122.517 80.1786 122.71 79.7791 123.07 79.6047C123.413 79.4433 123.699 79.1795 123.886 78.8495C124.325 78.1021 124.172 77.1488 123.522 76.5756C122.872 76.0024 121.907 75.9702 121.221 76.4987C120.84 76.7843 120.299 76.7071 120.014 76.3263C119.728 75.9454 119.805 75.405 120.186 75.1194C120.79 74.6626 121.524 74.4134 122.281 74.409C123.947 74.3977 125.395 75.5477 125.762 77.1724C126.129 78.7971 125.315 80.4579 123.806 81.1633C123.691 81.217 123.564 81.2442 123.437 81.2426Z" fill="#FF5364"/>
</g>
<defs>
<filter id="filter0_d_1_2013" x="0" y="0" width="220" height="220" filterUnits="userSpaceOnUse" color-interpolation-filters="sRGB">
<feFlood flood-opacity="0" result="BackgroundImageFix"/>
<feColorMatrix in="SourceAlpha" type="matrix" values="0 0 0 0 0 0 0 0 0 0 0 0 0 0 0 0 0 0 127 0" result="hardAlpha"/>
<feOffset dy="25"/>
<feGaussianBlur stdDeviation="35"/>
<feColorMatrix type="matrix" values="0 0 0 0 0.0392157 0 0 0 0 0.0117647 0 0 0 0 0.235294 0 0 0 0.15 0"/>
<feBlend mode="normal" in2="BackgroundImageFix" result="effect1_dropShadow_1_2013"/>
<feBlend mode="normal" in="SourceGraphic" in2="effect1_dropShadow_1_2013" result="shape"/>
</filter>
<clipPath id="clip0_1_2013">
<rect width="50" height="50" fill="white" transform="translate(85 60)"/>
</clipPath>
</defs>
</svg>
