<svg width="220" height="220" viewBox="0 0 220 220" fill="none" xmlns="http://www.w3.org/2000/svg">
<g filter="url(#filter0_d_1_1973)">
<rect x="70" y="45" width="80" height="80" rx="10" fill="white"/>
</g>
<path d="M111.569 106.849C110.5 106.849 109.863 105.79 110.192 104.883L116.468 87.6241C116.745 86.8638 117.586 86.4717 118.346 86.7479C119.106 87.0244 119.498 87.8652 119.222 88.6255L112.946 105.884C112.729 106.479 112.168 106.849 111.569 106.849V106.849Z" fill="#3AB4FB"/>
<path d="M127.259 106.849C126.663 106.849 126.102 106.482 125.884 105.889L119.545 88.6299C119.266 87.8704 119.656 87.0289 120.415 86.75C121.174 86.4708 122.016 86.8606 122.295 87.6198L128.634 104.879C128.991 105.851 128.259 106.849 127.259 106.849V106.849Z" fill="#1D9CFD"/>
<path d="M130.398 63.125H108.431C105.889 63.125 103.828 65.1857 103.828 67.7274V84.9874C103.828 87.5291 105.889 89.5898 108.431 89.5898H130.398C132.939 89.5898 135 87.5291 135 84.9874V67.7274C135 65.1857 132.939 63.125 130.398 63.125V63.125Z" fill="#EFF6FE"/>
<path d="M130.398 63.125H119.222V89.5898H130.398C132.939 89.5898 135 87.5291 135 84.9874V67.7274C135 65.1857 132.939 63.125 130.398 63.125V63.125Z" fill="#D9E4EF"/>
<path d="M100.69 72.4352C100.69 75.9588 97.8334 78.8152 94.3098 78.8152C90.7861 78.8152 87.9297 75.9588 87.9297 72.4352C87.9297 68.9111 90.7861 66.0547 94.3098 66.0547C97.8334 66.0547 100.69 68.9111 100.69 72.4352Z" fill="#FFCFBE"/>
<path d="M108.56 87.8669C107.837 87.5049 107.544 86.6252 107.905 85.9016L111.828 78.0562C112.19 77.3326 113.07 77.0396 113.793 77.4013C114.517 77.7633 114.81 78.643 114.448 79.3666L110.526 87.2115C110.163 87.9363 109.283 88.2282 108.56 87.8669V87.8669Z" fill="#FFB826"/>
<path d="M100.691 72.435C100.691 75.9587 97.8342 78.8151 94.3094 78.8151V66.0542C97.8342 66.0542 100.691 68.9106 100.691 72.435Z" fill="#F9BCAA"/>
<path d="M127.259 71.5466H111.569C110.76 71.5466 110.104 70.8905 110.104 70.0818C110.104 69.2727 110.76 68.6169 111.569 68.6169H127.259C128.068 68.6169 128.724 69.2727 128.724 70.0818C128.724 70.8905 128.068 71.5466 127.259 71.5466Z" fill="#3AB4FB"/>
<path d="M127.259 77.8223H120.687C119.877 77.8223 119.222 77.1665 119.222 76.3574C119.222 75.5483 119.877 74.8926 120.687 74.8926H127.259C128.068 74.8926 128.724 75.5483 128.724 76.3574C128.724 77.1665 128.068 77.8223 127.259 77.8223Z" fill="#1D9CFD"/>
<path d="M127.259 84.0981H120.687C119.877 84.0981 119.222 83.442 119.222 82.6333C119.222 81.8242 119.877 81.1685 120.687 81.1685H127.259C128.068 81.1685 128.724 81.8242 128.724 82.6333C128.724 83.442 128.068 84.0981 127.259 84.0981Z" fill="#1D9CFD"/>
<path d="M127.259 68.6169H119.222V71.5466H127.259C128.068 71.5466 128.724 70.8905 128.724 70.0818C128.724 69.2727 128.068 68.6169 127.259 68.6169Z" fill="#1D9CFD"/>
<path d="M99.0167 106.849H89.6028C88.7937 106.849 88.138 106.193 88.138 105.384V97.1959C86.3157 96.5829 85 94.8583 85 92.8319V88.125C85 85.6343 85.9693 83.2959 87.729 81.5408C89.4556 79.8097 91.855 78.8152 94.3102 78.8152H95.6045C98.1741 78.8152 99.6801 79.7563 101.791 80.8057C104.115 81.9615 107.015 83.4035 108.864 84.3248C110.571 85.1728 111.388 87.1614 110.774 88.9615C110.772 88.9672 110.77 88.973 110.768 88.9787C110.398 90.072 109.57 90.9528 108.494 91.3953C107.416 91.8344 106.207 91.7878 105.171 91.2702C103.695 90.5316 101.87 89.6196 100.482 88.9257V105.384C100.482 106.193 99.8258 106.849 99.0167 106.849V106.849Z" fill="#FF7579"/>
<path d="M108.864 84.3248C107.015 83.4035 104.115 81.9615 101.79 80.8057C99.6801 79.7563 98.1741 78.8152 95.6045 78.8152H94.3098C94.3098 78.8152 94.3098 78.8152 94.3094 78.8152V106.849H99.0167C99.8258 106.849 100.482 106.193 100.482 105.384V88.9257C101.87 89.6196 103.695 90.5316 105.171 91.2702C106.206 91.7878 107.416 91.834 108.494 91.3953C109.569 90.9528 110.398 90.072 110.768 88.9783C110.77 88.9726 110.772 88.9669 110.774 88.9611C111.388 87.1614 110.571 85.1728 108.864 84.3248V84.3248Z" fill="#FE4A60"/>
<defs>
<filter id="filter0_d_1_1973" x="0" y="0" width="220" height="220" filterUnits="userSpaceOnUse" color-interpolation-filters="sRGB">
<feFlood flood-opacity="0" result="BackgroundImageFix"/>
<feColorMatrix in="SourceAlpha" type="matrix" values="0 0 0 0 0 0 0 0 0 0 0 0 0 0 0 0 0 0 127 0" result="hardAlpha"/>
<feOffset dy="25"/>
<feGaussianBlur stdDeviation="35"/>
<feColorMatrix type="matrix" values="0 0 0 0 0.0392157 0 0 0 0 0.0117647 0 0 0 0 0.235294 0 0 0 0.15 0"/>
<feBlend mode="normal" in2="BackgroundImageFix" result="effect1_dropShadow_1_1973"/>
<feBlend mode="normal" in="SourceGraphic" in2="effect1_dropShadow_1_1973" result="shape"/>
</filter>
</defs>
</svg>
